<svg xmlns="http://www.w3.org/2000/svg" viewBox="0 0 900 560"><defs><linearGradient id="sky" x1="0" x2="1" y1="0" y2="1"><stop stop-color="#b9f1ff"/><stop offset=".55" stop-color="#fff4c8"/><stop offset="1" stop-color="#78d7c6"/></linearGradient><filter id="s"><feDropShadow dx="0" dy="22" stdDeviation="20" flood-color="#0e7592" flood-opacity=".18"/></filter></defs><rect width="900" height="560" rx="46" fill="url(#sky)"/><path d="M0 383c120-70 238-42 350 0s241 74 550-22v199H0z" fill="#fff9e8" opacity=".92"/><path d="M68 355c92-44 149-40 232-10 100 35 176 44 272 1 70-31 143-36 260 11" fill="none" stroke="#0e7592" stroke-opacity=".23" stroke-width="16" stroke-linecap="round"/><g filter="url(#s)"><rect x="106" y="170" width="240" height="162" rx="38" fill="#fff" opacity=".94"/><rect x="132" y="204" width="188" height="18" rx="9" fill="#74d4e5"/><rect x="132" y="238" width="126" height="16" rx="8" fill="#ffd685"/><rect x="132" y="270" width="156" height="16" rx="8" fill="#3fbf8f" opacity=".8"/><circle cx="650" cy="246" r="96" fill="#fff" opacity=".9"/><circle cx="620" cy="233" r="24" fill="#74d4e5"/><circle cx="681" cy="230" r="24" fill="#ffd685"/><path d="M593 284c44 34 84 35 123 0" fill="none" stroke="#102a38" stroke-opacity=".42" stroke-width="12" stroke-linecap="round"/></g><text x="96" y="90" font-family="Inter,Arial,sans-serif" font-size="44" font-weight="900" fill="#102a38">A home between adventures</text><text x="98" y="128" font-family="Inter,Arial,sans-serif" font-size="22" font-weight="700" fill="#0e7592">Rest • play • prepare</text></svg>